<?xml version="1.0" standalone="no"?>
<!DOCTYPE svg PUBLIC "-//W3C//DTD SVG 20010904//EN"
 "http://www.w3.org/TR/2001/REC-SVG-20010904/DTD/svg10.dtd">
<svg version="1.0" xmlns="http://www.w3.org/2000/svg"
 width="110.000000pt" height="110.000000pt" viewBox="0 0 110.000000 110.000000"
 preserveAspectRatio="xMidYMid meet">

<g transform="translate(0.000000,110.000000) scale(0.100000,-0.100000)"
fill="#000000" stroke="none">
<path d="M0 550 l0 -550 550 0 550 0 0 550 0 550 -550 0 -550 0 0 -550z m685
304 c62 -29 128 -97 158 -162 31 -68 31 -199 -1 -263 -28 -57 -90 -131 -103
-123 -5 3 9 26 30 51 140 158 87 399 -108 486 -69 31 -170 29 -242 -4 -110
-52 -169 -137 -177 -255 -6 -94 15 -158 74 -223 24 -27 40 -52 35 -55 -12 -8
-75 63 -103 116 -19 36 -23 58 -23 138 0 108 17 154 83 223 102 106 247 133
377 71z m-310 -133 c-20 -65 -32 -211 -17 -211 11 0 52 86 52 110 0 10 5 22
10 25 6 4 10 -12 10 -39 0 -34 4 -46 15 -46 22 0 65 52 65 80 0 38 20 100 31
100 6 0 8 -8 5 -17 -23 -72 -34 -213 -17 -213 4 0 23 32 40 70 18 39 35 70 37
70 3 0 2 -16 -2 -35 -3 -19 -4 -35 -1 -35 3 0 22 27 42 60 20 33 41 60 46 60
5 0 9 -27 9 -60 0 -33 2 -60 4 -60 3 0 22 9 43 21 31 17 34 18 16 2 -12 -10
-34 -26 -48 -36 -14 -10 -25 -26 -25 -36 0 -39 -31 -120 -56 -145 -33 -32 -61
-33 -75 -2 -15 31 8 75 71 135 43 42 48 51 53 104 3 31 4 57 2 57 -2 0 -15
-20 -29 -44 -33 -56 -53 -77 -69 -70 -8 3 -20 -10 -30 -31 -9 -19 -23 -35 -31
-35 -14 0 -30 55 -20 71 10 17 -13 9 -31 -11 -22 -25 -41 -26 -54 -3 -5 10
-11 16 -13 13 -2 -3 -10 -18 -18 -35 -27 -52 -45 -39 -48 35 -4 71 13 170 29
170 6 0 8 -9 4 -19z m75 -16 c0 -8 -4 -15 -10 -15 -5 0 -10 7 -10 15 0 8 5 15
10 15 6 0 10 -7 10 -15z m-56 -403 c2 -4 1 -14 -4 -22 -7 -11 -12 -12 -21 -3
-6 6 -8 16 -5 22 8 13 23 14 30 3z m330 -7 c3 -8 2 -14 -2 -14 -21 3 -32 -2
-26 -13 4 -7 3 -8 -4 -4 -19 11 -15 36 5 29 11 -4 14 -3 9 5 -4 7 -3 12 2 12
6 0 12 -7 16 -15z m-277 -47 c-3 -7 -5 -2 -5 12 0 14 2 19 5 13 2 -7 2 -19 0
-25z m193 7 c0 -18 -27 -26 -39 -11 -7 9 -7 16 0 23 14 14 39 6 39 -12z m-92
-8 c2 -12 -3 -17 -17 -17 -12 0 -21 6 -21 13 0 31 32 34 38 4z"/>
<path d="M628 503 c-59 -65 -78 -123 -40 -123 26 0 48 27 67 79 26 76 17 91
-27 44z"/>
<path d="M606 261 c-4 -5 -2 -12 3 -15 5 -4 12 -2 15 3 4 5 2 12 -3 15 -5 4
-12 2 -15 -3z"/>
<path d="M520 250 c0 -5 5 -10 10 -10 6 0 10 5 10 10 0 6 -4 10 -10 10 -5 0
-10 -4 -10 -10z"/>
</g>
</svg>
